ISO-10303-21;
HEADER;
FILE_DESCRIPTION(('FreeCAD Model'),'2;1');
FILE_NAME('Open CASCADE Shape Model','2026-07-01T18:54:00',(''),(''),
  'Open CASCADE STEP processor 7.8','FreeCAD','Unknown');
FILE_SCHEMA(('AUTOMOTIVE_DESIGN { 1 0 10303 214 1 1 1 1 }'));
ENDSEC;
DATA;
#1 = APPLICATION_PROTOCOL_DEFINITION('international standard',
  'automotive_design',2000,#2);
#2 = APPLICATION_CONTEXT(
  'core data for automotive mechanical design processes');
#3 = SHAPE_DEFINITION_REPRESENTATION(#4,#10);
#4 = PRODUCT_DEFINITION_SHAPE('','',#5);
#5 = PRODUCT_DEFINITION('design','',#6,#9);
#6 = PRODUCT_DEFINITION_FORMATION('','',#7);
#7 = PRODUCT('final_block_v1','final_block_v1','',(#8));
#8 = PRODUCT_CONTEXT('',#2,'mechanical');
#9 = PRODUCT_DEFINITION_CONTEXT('part definition',#2,'design');
#10 = ADVANCED_BREP_SHAPE_REPRESENTATION('',(#11,#15),#612);
#11 = AXIS2_PLACEMENT_3D('',#12,#13,#14);
#12 = CARTESIAN_POINT('',(0.,0.,0.));
#13 = DIRECTION('',(0.,0.,1.));
#14 = DIRECTION('',(1.,0.,-0.));
#15 = MANIFOLD_SOLID_BREP('',#16);
#16 = CLOSED_SHELL('',(#17,#50,#75,#95,#170,#187,#212,#237,#262,#287,
    #312,#338,#364,#390,#416,#442,#467,#492,#517,#542,#567,#576,#585,
    #594,#603));
#17 = ADVANCED_FACE('',(#18),#45,.T.);
#18 = FACE_BOUND('',#19,.F.);
#19 = EDGE_LOOP('',(#20,#30,#37,#38));
#20 = ORIENTED_EDGE('',*,*,#21,.T.);
#21 = EDGE_CURVE('',#22,#24,#26,.T.);
#22 = VERTEX_POINT('',#23);
#23 = CARTESIAN_POINT('',(9.75,-2.388061258337E-15,0.));
#24 = VERTEX_POINT('',#25);
#25 = CARTESIAN_POINT('',(9.75,0.,6.8));
#26 = LINE('',#27,#28);
#27 = CARTESIAN_POINT('',(9.75,-2.388061258337E-15,0.));
#28 = VECTOR('',#29,1.);
#29 = DIRECTION('',(0.,0.,1.));
#30 = ORIENTED_EDGE('',*,*,#31,.T.);
#31 = EDGE_CURVE('',#24,#24,#32,.T.);
#32 = CIRCLE('',#33,9.75);
#33 = AXIS2_PLACEMENT_3D('',#34,#35,#36);
#34 = CARTESIAN_POINT('',(0.,0.,6.8));
#35 = DIRECTION('',(0.,0.,1.));
#36 = DIRECTION('',(1.,0.,0.));
#37 = ORIENTED_EDGE('',*,*,#21,.F.);
#38 = ORIENTED_EDGE('',*,*,#39,.F.);
#39 = EDGE_CURVE('',#22,#22,#40,.T.);
#40 = CIRCLE('',#41,9.75);
#41 = AXIS2_PLACEMENT_3D('',#42,#43,#44);
#42 = CARTESIAN_POINT('',(0.,0.,0.));
#43 = DIRECTION('',(0.,0.,1.));
#44 = DIRECTION('',(1.,0.,0.));
#45 = CYLINDRICAL_SURFACE('',#46,9.75);
#46 = AXIS2_PLACEMENT_3D('',#47,#48,#49);
#47 = CARTESIAN_POINT('',(0.,0.,0.));
#48 = DIRECTION('',(-0.,-0.,-1.));
#49 = DIRECTION('',(1.,0.,0.));
#50 = ADVANCED_FACE('',(#51),#70,.T.);
#51 = FACE_BOUND('',#52,.T.);
#52 = EDGE_LOOP('',(#53,#61,#62,#63));
#53 = ORIENTED_EDGE('',*,*,#54,.F.);
#54 = EDGE_CURVE('',#24,#55,#57,.T.);
#55 = VERTEX_POINT('',#56);
#56 = CARTESIAN_POINT('',(9.45,0.,7.1));
#57 = LINE('',#58,#59);
#58 = CARTESIAN_POINT('',(9.75,0.,6.8));
#59 = VECTOR('',#60,1.);
#60 = DIRECTION('',(-0.707106781187,0.,0.707106781187));
#61 = ORIENTED_EDGE('',*,*,#31,.T.);
#62 = ORIENTED_EDGE('',*,*,#54,.T.);
#63 = ORIENTED_EDGE('',*,*,#64,.F.);
#64 = EDGE_CURVE('',#55,#55,#65,.T.);
#65 = CIRCLE('',#66,9.45);
#66 = AXIS2_PLACEMENT_3D('',#67,#68,#69);
#67 = CARTESIAN_POINT('',(0.,0.,7.1));
#68 = DIRECTION('',(0.,0.,1.));
#69 = DIRECTION('',(1.,0.,0.));
#70 = CONICAL_SURFACE('',#71,9.75,0.785398163397);
#71 = AXIS2_PLACEMENT_3D('',#72,#73,#74);
#72 = CARTESIAN_POINT('',(0.,0.,6.8));
#73 = DIRECTION('',(-0.,-0.,-1.));
#74 = DIRECTION('',(1.,0.,0.));
#75 = ADVANCED_FACE('',(#76,#79),#90,.F.);
#76 = FACE_BOUND('',#77,.F.);
#77 = EDGE_LOOP('',(#78));
#78 = ORIENTED_EDGE('',*,*,#39,.T.);
#79 = FACE_BOUND('',#80,.F.);
#80 = EDGE_LOOP('',(#81));
#81 = ORIENTED_EDGE('',*,*,#82,.T.);
#82 = EDGE_CURVE('',#83,#83,#85,.T.);
#83 = VERTEX_POINT('',#84);
#84 = CARTESIAN_POINT('',(2.,-4.898587196589E-16,0.));
#85 = CIRCLE('',#86,2.);
#86 = AXIS2_PLACEMENT_3D('',#87,#88,#89);
#87 = CARTESIAN_POINT('',(0.,0.,0.));
#88 = DIRECTION('',(0.,0.,-1.));
#89 = DIRECTION('',(1.,0.,0.));
#90 = PLANE('',#91);
#91 = AXIS2_PLACEMENT_3D('',#92,#93,#94);
#92 = CARTESIAN_POINT('',(0.,0.,0.));
#93 = DIRECTION('',(0.,0.,1.));
#94 = DIRECTION('',(1.,0.,0.));
#95 = ADVANCED_FACE('',(#96,#99,#110,#121,#132,#143,#154),#165,.T.);
#96 = FACE_BOUND('',#97,.T.);
#97 = EDGE_LOOP('',(#98));
#98 = ORIENTED_EDGE('',*,*,#64,.T.);
#99 = FACE_BOUND('',#100,.T.);
#100 = EDGE_LOOP('',(#101));
#101 = ORIENTED_EDGE('',*,*,#102,.T.);
#102 = EDGE_CURVE('',#103,#103,#105,.T.);
#103 = VERTEX_POINT('',#104);
#104 = CARTESIAN_POINT('',(-4.495470223263,-6.169308293641,7.1));
#105 = CIRCLE('',#106,2.469573693569);
#106 = AXIS2_PLACEMENT_3D('',#107,#108,#109);
#107 = CARTESIAN_POINT('',(-5.258610463437,-3.820604139901,7.1));
#108 = DIRECTION('',(-2.111769684221E-16,-6.861555643111E-17,-1.));
#109 = DIRECTION('',(0.309016994375,-0.951056516295,0.));
#110 = FACE_BOUND('',#111,.T.);
#111 = EDGE_LOOP('',(#112));
#112 = ORIENTED_EDGE('',*,*,#113,.T.);
#113 = EDGE_CURVE('',#114,#114,#116,.T.);
#114 = VERTEX_POINT('',#115);
#115 = CARTESIAN_POINT('',(4.478184157006,-6.181867355918,7.1));
#116 = CIRCLE('',#117,2.469573693569);
#117 = AXIS2_PLACEMENT_3D('',#118,#119,#120);
#118 = CARTESIAN_POINT('',(2.008610463437,-6.181867355918,7.1));
#119 = DIRECTION('',(-4.930380657631E-32,-2.22044604925E-16,-1.));
#120 = DIRECTION('',(1.,-2.22044604925E-16,0.));
#121 = FACE_BOUND('',#122,.T.);
#122 = EDGE_LOOP('',(#123));
#123 = ORIENTED_EDGE('',*,*,#124,.T.);
#124 = EDGE_CURVE('',#125,#125,#127,.T.);
#125 = VERTEX_POINT('',#126);
#126 = CARTESIAN_POINT('',(-7.256537550396,2.369025143372,7.1));
#127 = CIRCLE('',#128,2.469573693569);
#128 = AXIS2_PLACEMENT_3D('',#129,#130,#131);
#129 = CARTESIAN_POINT('',(-5.258610463437,3.820604139901,7.1));
#130 = DIRECTION('',(-1.30514544126E-16,1.796378588936E-16,-1.));
#131 = DIRECTION('',(-0.809016994375,-0.587785252292,0.));
#132 = FACE_BOUND('',#133,.T.);
#133 = EDGE_LOOP('',(#134));
#134 = ORIENTED_EDGE('',*,*,#135,.T.);
#135 = EDGE_CURVE('',#136,#136,#138,.T.);
#136 = VERTEX_POINT('',#137);
#137 = CARTESIAN_POINT('',(2.,-4.898587196589E-16,7.1));
#138 = CIRCLE('',#139,2.);
#139 = AXIS2_PLACEMENT_3D('',#140,#141,#142);
#140 = CARTESIAN_POINT('',(0.,0.,7.1));
#141 = DIRECTION('',(0.,0.,-1.));
#142 = DIRECTION('',(1.,0.,0.));
#143 = FACE_BOUND('',#144,.T.);
#144 = EDGE_LOOP('',(#145));
#145 = ORIENTED_EDGE('',*,*,#146,.T.);
#146 = EDGE_CURVE('',#147,#147,#149,.T.);
#147 = VERTEX_POINT('',#148);
#148 = CARTESIAN_POINT('',(7.263140240174,2.34870415374,7.1));
#149 = CIRCLE('',#150,2.469573693569);
#150 = AXIS2_PLACEMENT_3D('',#151,#152,#153);
#151 = CARTESIAN_POINT('',(6.5,5.651223870806E-16,7.1));
#152 = DIRECTION('',(2.111769684221E-16,-6.861555643111E-17,-1.));
#153 = DIRECTION('',(0.309016994375,0.951056516295,0.));
#154 = FACE_BOUND('',#155,.T.);
#155 = EDGE_LOOP('',(#156));
#156 = ORIENTED_EDGE('',*,*,#157,.T.);
#157 = EDGE_CURVE('',#158,#158,#160,.T.);
#158 = VERTEX_POINT('',#159);
#159 = CARTESIAN_POINT('',(1.068337647868E-02,7.633446352448,7.1));
#160 = CIRCLE('',#161,2.469573693569);
#161 = AXIS2_PLACEMENT_3D('',#162,#163,#164);
#162 = CARTESIAN_POINT('',(2.008610463437,6.181867355918,7.1));
#163 = DIRECTION('',(1.30514544126E-16,1.796378588936E-16,-1.));
#164 = DIRECTION('',(-0.809016994375,0.587785252292,0.));
#165 = PLANE('',#166);
#166 = AXIS2_PLACEMENT_3D('',#167,#168,#169);
#167 = CARTESIAN_POINT('',(0.,0.,7.1));
#168 = DIRECTION('',(0.,0.,1.));
#169 = DIRECTION('',(1.,0.,0.));
#170 = ADVANCED_FACE('',(#171),#182,.F.);
#171 = FACE_BOUND('',#172,.T.);
#172 = EDGE_LOOP('',(#173,#174,#180,#181));
#173 = ORIENTED_EDGE('',*,*,#82,.T.);
#174 = ORIENTED_EDGE('',*,*,#175,.T.);
#175 = EDGE_CURVE('',#83,#136,#176,.T.);
#176 = LINE('',#177,#178);
#177 = CARTESIAN_POINT('',(2.,-4.898587196589E-16,-1.));
#178 = VECTOR('',#179,1.);
#179 = DIRECTION('',(0.,0.,1.));
#180 = ORIENTED_EDGE('',*,*,#135,.F.);
#181 = ORIENTED_EDGE('',*,*,#175,.F.);
#182 = CYLINDRICAL_SURFACE('',#183,2.);
#183 = AXIS2_PLACEMENT_3D('',#184,#185,#186);
#184 = CARTESIAN_POINT('',(0.,0.,-1.));
#185 = DIRECTION('',(-0.,-0.,-1.));
#186 = DIRECTION('',(1.,0.,0.));
#187 = ADVANCED_FACE('',(#188),#207,.F.);
#188 = FACE_BOUND('',#189,.T.);
#189 = EDGE_LOOP('',(#190,#198,#205,#206));
#190 = ORIENTED_EDGE('',*,*,#191,.F.);
#191 = EDGE_CURVE('',#192,#103,#194,.T.);
#192 = VERTEX_POINT('',#193);
#193 = CARTESIAN_POINT('',(-4.733281573,-5.437400217603,2.1));
#194 = LINE('',#195,#196);
#195 = CARTESIAN_POINT('',(-4.733281573,-5.437400217603,2.1));
#196 = VECTOR('',#197,1.);
#197 = DIRECTION('',(4.700871684164E-02,-0.144677953927,0.988361507844)
  );
#198 = ORIENTED_EDGE('',*,*,#199,.T.);
#199 = EDGE_CURVE('',#192,#192,#200,.T.);
#200 = CIRCLE('',#201,1.7);
#201 = AXIS2_PLACEMENT_3D('',#202,#203,#204);
#202 = CARTESIAN_POINT('',(-5.258610463437,-3.820604139901,2.1));
#203 = DIRECTION('',(-2.111769684221E-16,-6.861555643111E-17,-1.));
#204 = DIRECTION('',(0.309016994375,-0.951056516295,0.));
#205 = ORIENTED_EDGE('',*,*,#191,.T.);
#206 = ORIENTED_EDGE('',*,*,#102,.F.);
#207 = CONICAL_SURFACE('',#208,1.7,0.152716326795);
#208 = AXIS2_PLACEMENT_3D('',#209,#210,#211);
#209 = CARTESIAN_POINT('',(-5.258610463437,-3.820604139901,2.1));
#210 = DIRECTION('',(2.111769684221E-16,6.861555643111E-17,1.));
#211 = DIRECTION('',(0.309016994375,-0.951056516295,0.));
#212 = ADVANCED_FACE('',(#213),#232,.F.);
#213 = FACE_BOUND('',#214,.T.);
#214 = EDGE_LOOP('',(#215,#223,#230,#231));
#215 = ORIENTED_EDGE('',*,*,#216,.F.);
#216 = EDGE_CURVE('',#217,#114,#219,.T.);
#217 = VERTEX_POINT('',#218);
#218 = CARTESIAN_POINT('',(3.708610463437,-6.181867355918,2.1));
#219 = LINE('',#220,#221);
#220 = CARTESIAN_POINT('',(3.708610463437,-6.181867355918,2.1));
#221 = VECTOR('',#222,1.);
#222 = DIRECTION('',(0.152123403235,1.856821595613E-16,0.988361507844));
#223 = ORIENTED_EDGE('',*,*,#224,.T.);
#224 = EDGE_CURVE('',#217,#217,#225,.T.);
#225 = CIRCLE('',#226,1.7);
#226 = AXIS2_PLACEMENT_3D('',#227,#228,#229);
#227 = CARTESIAN_POINT('',(2.008610463437,-6.181867355918,2.1));
#228 = DIRECTION('',(-4.930380657631E-32,-2.22044604925E-16,-1.));
#229 = DIRECTION('',(1.,-2.22044604925E-16,0.));
#230 = ORIENTED_EDGE('',*,*,#216,.T.);
#231 = ORIENTED_EDGE('',*,*,#113,.F.);
#232 = CONICAL_SURFACE('',#233,1.7,0.152716326795);
#233 = AXIS2_PLACEMENT_3D('',#234,#235,#236);
#234 = CARTESIAN_POINT('',(2.008610463437,-6.181867355918,2.1));
#235 = DIRECTION('',(4.930380657631E-32,2.22044604925E-16,1.));
#236 = DIRECTION('',(1.,-2.22044604925E-16,0.));
#237 = ADVANCED_FACE('',(#238),#257,.F.);
#238 = FACE_BOUND('',#239,.T.);
#239 = EDGE_LOOP('',(#240,#248,#255,#256));
#240 = ORIENTED_EDGE('',*,*,#241,.F.);
#241 = EDGE_CURVE('',#242,#125,#244,.T.);
#242 = VERTEX_POINT('',#243);
#243 = CARTESIAN_POINT('',(-6.633939353875,2.821369211004,2.1));
#244 = LINE('',#245,#246);
#245 = CARTESIAN_POINT('',(-6.633939353875,2.821369211004,2.1));
#246 = VECTOR('',#247,1.);
#247 = DIRECTION('',(-0.123070418459,-8.941589294984E-02,0.988361507844)
  );
#248 = ORIENTED_EDGE('',*,*,#249,.T.);
#249 = EDGE_CURVE('',#242,#242,#250,.T.);
#250 = CIRCLE('',#251,1.7);
#251 = AXIS2_PLACEMENT_3D('',#252,#253,#254);
#252 = CARTESIAN_POINT('',(-5.258610463437,3.820604139901,2.1));
#253 = DIRECTION('',(-1.30514544126E-16,1.796378588936E-16,-1.));
#254 = DIRECTION('',(-0.809016994375,-0.587785252292,0.));
#255 = ORIENTED_EDGE('',*,*,#241,.T.);
#256 = ORIENTED_EDGE('',*,*,#124,.F.);
#257 = CONICAL_SURFACE('',#258,1.7,0.152716326795);
#258 = AXIS2_PLACEMENT_3D('',#259,#260,#261);
#259 = CARTESIAN_POINT('',(-5.258610463437,3.820604139901,2.1));
#260 = DIRECTION('',(1.30514544126E-16,-1.796378588936E-16,1.));
#261 = DIRECTION('',(-0.809016994375,-0.587785252292,0.));
#262 = ADVANCED_FACE('',(#263),#282,.F.);
#263 = FACE_BOUND('',#264,.T.);
#264 = EDGE_LOOP('',(#265,#273,#280,#281));
#265 = ORIENTED_EDGE('',*,*,#266,.F.);
#266 = EDGE_CURVE('',#267,#147,#269,.T.);
#267 = VERTEX_POINT('',#268);
#268 = CARTESIAN_POINT('',(7.025328890437,1.616796077702,2.1));
#269 = LINE('',#270,#271);
#270 = CARTESIAN_POINT('',(7.025328890437,1.616796077702,2.1));
#271 = VECTOR('',#272,1.);
#272 = DIRECTION('',(4.700871684164E-02,0.144677953927,0.988361507844));
#273 = ORIENTED_EDGE('',*,*,#274,.T.);
#274 = EDGE_CURVE('',#267,#267,#275,.T.);
#275 = CIRCLE('',#276,1.7);
#276 = AXIS2_PLACEMENT_3D('',#277,#278,#279);
#277 = CARTESIAN_POINT('',(6.5,2.22044604925E-16,2.1));
#278 = DIRECTION('',(2.111769684221E-16,-6.861555643111E-17,-1.));
#279 = DIRECTION('',(0.309016994375,0.951056516295,0.));
#280 = ORIENTED_EDGE('',*,*,#266,.T.);
#281 = ORIENTED_EDGE('',*,*,#146,.F.);
#282 = CONICAL_SURFACE('',#283,1.7,0.152716326795);
#283 = AXIS2_PLACEMENT_3D('',#284,#285,#286);
#284 = CARTESIAN_POINT('',(6.5,2.22044604925E-16,2.1));
#285 = DIRECTION('',(-2.111769684221E-16,6.861555643111E-17,1.));
#286 = DIRECTION('',(0.309016994375,0.951056516295,0.));
#287 = ADVANCED_FACE('',(#288),#307,.F.);
#288 = FACE_BOUND('',#289,.T.);
#289 = EDGE_LOOP('',(#290,#298,#305,#306));
#290 = ORIENTED_EDGE('',*,*,#291,.F.);
#291 = EDGE_CURVE('',#292,#158,#294,.T.);
#292 = VERTEX_POINT('',#293);
#293 = CARTESIAN_POINT('',(0.633281573,7.181102284816,2.1));
#294 = LINE('',#295,#296);
#295 = CARTESIAN_POINT('',(0.633281573,7.181102284816,2.1));
#296 = VECTOR('',#297,1.);
#297 = DIRECTION('',(-0.123070418459,8.941589294984E-02,0.988361507844)
  );
#298 = ORIENTED_EDGE('',*,*,#299,.T.);
#299 = EDGE_CURVE('',#292,#292,#300,.T.);
#300 = CIRCLE('',#301,1.7);
#301 = AXIS2_PLACEMENT_3D('',#302,#303,#304);
#302 = CARTESIAN_POINT('',(2.008610463437,6.181867355918,2.1));
#303 = DIRECTION('',(1.30514544126E-16,1.796378588936E-16,-1.));
#304 = DIRECTION('',(-0.809016994375,0.587785252292,0.));
#305 = ORIENTED_EDGE('',*,*,#291,.T.);
#306 = ORIENTED_EDGE('',*,*,#157,.F.);
#307 = CONICAL_SURFACE('',#308,1.7,0.152716326795);
#308 = AXIS2_PLACEMENT_3D('',#309,#310,#311);
#309 = CARTESIAN_POINT('',(2.008610463437,6.181867355918,2.1));
#310 = DIRECTION('',(-1.30514544126E-16,-1.796378588936E-16,1.));
#311 = DIRECTION('',(-0.809016994375,0.587785252292,0.));
#312 = ADVANCED_FACE('',(#313),#333,.F.);
#313 = FACE_BOUND('',#314,.T.);
#314 = EDGE_LOOP('',(#315,#324,#331,#332));
#315 = ORIENTED_EDGE('',*,*,#316,.T.);
#316 = EDGE_CURVE('',#317,#317,#319,.T.);
#317 = VERTEX_POINT('',#318);
#318 = CARTESIAN_POINT('',(-5.258610291762,-3.820604668262,0.4));
#319 = CIRCLE('',#320,5.555513242647E-07);
#320 = AXIS2_PLACEMENT_3D('',#321,#322,#323);
#321 = CARTESIAN_POINT('',(-5.258610463437,-3.820604139901,0.4));
#322 = DIRECTION('',(-2.111769684221E-16,-6.861555643111E-17,-1.));
#323 = DIRECTION('',(0.309016994375,-0.951056516295,0.));
#324 = ORIENTED_EDGE('',*,*,#325,.T.);
#325 = EDGE_CURVE('',#317,#192,#326,.T.);
#326 = CIRCLE('',#327,1.7);
#327 = AXIS2_PLACEMENT_3D('',#328,#329,#330);
#328 = CARTESIAN_POINT('',(-5.258610463437,-3.820604139901,2.1));
#329 = DIRECTION('',(-0.951056516295,-0.309016994375,2.22044604925E-16)
  );
#330 = DIRECTION('',(0.309016994375,-0.951056516295,0.));
#331 = ORIENTED_EDGE('',*,*,#199,.F.);
#332 = ORIENTED_EDGE('',*,*,#325,.F.);
#333 = SPHERICAL_SURFACE('',#334,1.7);
#334 = AXIS2_PLACEMENT_3D('',#335,#336,#337);
#335 = CARTESIAN_POINT('',(-5.258610463437,-3.820604139901,2.1));
#336 = DIRECTION('',(2.111769684221E-16,6.861555643111E-17,1.));
#337 = DIRECTION('',(0.309016994375,-0.951056516295,0.));
#338 = ADVANCED_FACE('',(#339),#359,.F.);
#339 = FACE_BOUND('',#340,.T.);
#340 = EDGE_LOOP('',(#341,#350,#357,#358));
#341 = ORIENTED_EDGE('',*,*,#342,.T.);
#342 = EDGE_CURVE('',#343,#343,#345,.T.);
#343 = VERTEX_POINT('',#344);
#344 = CARTESIAN_POINT('',(2.008611018988,-6.181867355918,0.4));
#345 = CIRCLE('',#346,5.555513242647E-07);
#346 = AXIS2_PLACEMENT_3D('',#347,#348,#349);
#347 = CARTESIAN_POINT('',(2.008610463437,-6.181867355918,0.4));
#348 = DIRECTION('',(-4.930380657631E-32,-2.22044604925E-16,-1.));
#349 = DIRECTION('',(1.,-2.22044604925E-16,0.));
#350 = ORIENTED_EDGE('',*,*,#351,.T.);
#351 = EDGE_CURVE('',#343,#217,#352,.T.);
#352 = CIRCLE('',#353,1.7);
#353 = AXIS2_PLACEMENT_3D('',#354,#355,#356);
#354 = CARTESIAN_POINT('',(2.008610463437,-6.181867355918,2.1));
#355 = DIRECTION('',(-2.22044604925E-16,-1.,2.22044604925E-16));
#356 = DIRECTION('',(1.,-2.22044604925E-16,0.));
#357 = ORIENTED_EDGE('',*,*,#224,.F.);
#358 = ORIENTED_EDGE('',*,*,#351,.F.);
#359 = SPHERICAL_SURFACE('',#360,1.7);
#360 = AXIS2_PLACEMENT_3D('',#361,#362,#363);
#361 = CARTESIAN_POINT('',(2.008610463437,-6.181867355918,2.1));
#362 = DIRECTION('',(4.930380657631E-32,2.22044604925E-16,1.));
#363 = DIRECTION('',(1.,-2.22044604925E-16,0.));
#364 = ADVANCED_FACE('',(#365),#385,.F.);
#365 = FACE_BOUND('',#366,.T.);
#366 = EDGE_LOOP('',(#367,#376,#383,#384));
#367 = ORIENTED_EDGE('',*,*,#368,.T.);
#368 = EDGE_CURVE('',#369,#369,#371,.T.);
#369 = VERTEX_POINT('',#370);
#370 = CARTESIAN_POINT('',(-5.258610912888,3.820603813356,0.4));
#371 = CIRCLE('',#372,5.555513242647E-07);
#372 = AXIS2_PLACEMENT_3D('',#373,#374,#375);
#373 = CARTESIAN_POINT('',(-5.258610463437,3.820604139901,0.4));
#374 = DIRECTION('',(-1.30514544126E-16,1.796378588936E-16,-1.));
#375 = DIRECTION('',(-0.809016994375,-0.587785252292,0.));
#376 = ORIENTED_EDGE('',*,*,#377,.T.);
#377 = EDGE_CURVE('',#369,#242,#378,.T.);
#378 = CIRCLE('',#379,1.7);
#379 = AXIS2_PLACEMENT_3D('',#380,#381,#382);
#380 = CARTESIAN_POINT('',(-5.258610463437,3.820604139901,2.1));
#381 = DIRECTION('',(-0.587785252292,0.809016994375,2.22044604925E-16));
#382 = DIRECTION('',(-0.809016994375,-0.587785252292,0.));
#383 = ORIENTED_EDGE('',*,*,#249,.F.);
#384 = ORIENTED_EDGE('',*,*,#377,.F.);
#385 = SPHERICAL_SURFACE('',#386,1.7);
#386 = AXIS2_PLACEMENT_3D('',#387,#388,#389);
#387 = CARTESIAN_POINT('',(-5.258610463437,3.820604139901,2.1));
#388 = DIRECTION('',(1.30514544126E-16,-1.796378588936E-16,1.));
#389 = DIRECTION('',(-0.809016994375,-0.587785252292,0.));
#390 = ADVANCED_FACE('',(#391),#411,.F.);
#391 = FACE_BOUND('',#392,.T.);
#392 = EDGE_LOOP('',(#393,#402,#409,#410));
#393 = ORIENTED_EDGE('',*,*,#394,.T.);
#394 = EDGE_CURVE('',#395,#395,#397,.T.);
#395 = VERTEX_POINT('',#396);
#396 = CARTESIAN_POINT('',(6.500000171675,5.283607071837E-07,0.4));
#397 = CIRCLE('',#398,5.555513242647E-07);
#398 = AXIS2_PLACEMENT_3D('',#399,#400,#401);
#399 = CARTESIAN_POINT('',(6.5,1.053981589922E-16,0.4));
#400 = DIRECTION('',(2.111769684221E-16,-6.861555643111E-17,-1.));
#401 = DIRECTION('',(0.309016994375,0.951056516295,0.));
#402 = ORIENTED_EDGE('',*,*,#403,.T.);
#403 = EDGE_CURVE('',#395,#267,#404,.T.);
#404 = CIRCLE('',#405,1.7);
#405 = AXIS2_PLACEMENT_3D('',#406,#407,#408);
#406 = CARTESIAN_POINT('',(6.5,2.22044604925E-16,2.1));
#407 = DIRECTION('',(0.951056516295,-0.309016994375,2.22044604925E-16));
#408 = DIRECTION('',(0.309016994375,0.951056516295,0.));
#409 = ORIENTED_EDGE('',*,*,#274,.F.);
#410 = ORIENTED_EDGE('',*,*,#403,.F.);
#411 = SPHERICAL_SURFACE('',#412,1.7);
#412 = AXIS2_PLACEMENT_3D('',#413,#414,#415);
#413 = CARTESIAN_POINT('',(6.5,2.22044604925E-16,2.1));
#414 = DIRECTION('',(-2.111769684221E-16,6.861555643111E-17,1.));
#415 = DIRECTION('',(0.309016994375,0.951056516295,0.));
#416 = ADVANCED_FACE('',(#417),#437,.F.);
#417 = FACE_BOUND('',#418,.T.);
#418 = EDGE_LOOP('',(#419,#428,#435,#436));
#419 = ORIENTED_EDGE('',*,*,#420,.T.);
#420 = EDGE_CURVE('',#421,#421,#423,.T.);
#421 = VERTEX_POINT('',#422);
#422 = CARTESIAN_POINT('',(2.008610013987,6.181867682463,0.4));
#423 = CIRCLE('',#424,5.555513242647E-07);
#424 = AXIS2_PLACEMENT_3D('',#425,#426,#427);
#425 = CARTESIAN_POINT('',(2.008610463437,6.181867355918,0.4));
#426 = DIRECTION('',(1.30514544126E-16,1.796378588936E-16,-1.));
#427 = DIRECTION('',(-0.809016994375,0.587785252292,0.));
#428 = ORIENTED_EDGE('',*,*,#429,.T.);
#429 = EDGE_CURVE('',#421,#292,#430,.T.);
#430 = CIRCLE('',#431,1.7);
#431 = AXIS2_PLACEMENT_3D('',#432,#433,#434);
#432 = CARTESIAN_POINT('',(2.008610463437,6.181867355918,2.1));
#433 = DIRECTION('',(0.587785252292,0.809016994375,2.22044604925E-16));
#434 = DIRECTION('',(-0.809016994375,0.587785252292,0.));
#435 = ORIENTED_EDGE('',*,*,#299,.F.);
#436 = ORIENTED_EDGE('',*,*,#429,.F.);
#437 = SPHERICAL_SURFACE('',#438,1.7);
#438 = AXIS2_PLACEMENT_3D('',#439,#440,#441);
#439 = CARTESIAN_POINT('',(2.008610463437,6.181867355918,2.1));
#440 = DIRECTION('',(-1.30514544126E-16,-1.796378588936E-16,1.));
#441 = DIRECTION('',(-0.809016994375,0.587785252292,0.));
#442 = ADVANCED_FACE('',(#443),#462,.T.);
#443 = FACE_BOUND('',#444,.F.);
#444 = EDGE_LOOP('',(#445,#453,#454,#455));
#445 = ORIENTED_EDGE('',*,*,#446,.F.);
#446 = EDGE_CURVE('',#317,#447,#449,.T.);
#447 = VERTEX_POINT('',#448);
#448 = CARTESIAN_POINT('',(-5.258610291762,-3.820604668262,7.1));
#449 = LINE('',#450,#451);
#450 = CARTESIAN_POINT('',(-5.258610291762,-3.820604668262,0.4));
#451 = VECTOR('',#452,1.);
#452 = DIRECTION('',(2.111769684221E-16,6.861555643111E-17,1.));
#453 = ORIENTED_EDGE('',*,*,#316,.T.);
#454 = ORIENTED_EDGE('',*,*,#446,.T.);
#455 = ORIENTED_EDGE('',*,*,#456,.F.);
#456 = EDGE_CURVE('',#447,#447,#457,.T.);
#457 = CIRCLE('',#458,5.555513240759E-07);
#458 = AXIS2_PLACEMENT_3D('',#459,#460,#461);
#459 = CARTESIAN_POINT('',(-5.258610463437,-3.820604139901,7.1));
#460 = DIRECTION('',(-2.111769684221E-16,-6.861555643111E-17,-1.));
#461 = DIRECTION('',(0.309016994375,-0.951056516295,0.));
#462 = CYLINDRICAL_SURFACE('',#463,5.555513240759E-07);
#463 = AXIS2_PLACEMENT_3D('',#464,#465,#466);
#464 = CARTESIAN_POINT('',(-5.258610463437,-3.820604139901,0.4));
#465 = DIRECTION('',(2.111769684221E-16,6.861555643111E-17,1.));
#466 = DIRECTION('',(0.309016994375,-0.951056516295,0.));
#467 = ADVANCED_FACE('',(#468),#487,.T.);
#468 = FACE_BOUND('',#469,.F.);
#469 = EDGE_LOOP('',(#470,#478,#479,#480));
#470 = ORIENTED_EDGE('',*,*,#471,.F.);
#471 = EDGE_CURVE('',#343,#472,#474,.T.);
#472 = VERTEX_POINT('',#473);
#473 = CARTESIAN_POINT('',(2.008611018988,-6.181867355918,7.1));
#474 = LINE('',#475,#476);
#475 = CARTESIAN_POINT('',(2.008611018988,-6.181867355918,0.4));
#476 = VECTOR('',#477,1.);
#477 = DIRECTION('',(4.930380657631E-32,2.22044604925E-16,1.));
#478 = ORIENTED_EDGE('',*,*,#342,.T.);
#479 = ORIENTED_EDGE('',*,*,#471,.T.);
#480 = ORIENTED_EDGE('',*,*,#481,.F.);
#481 = EDGE_CURVE('',#472,#472,#482,.T.);
#482 = CIRCLE('',#483,5.555513240759E-07);
#483 = AXIS2_PLACEMENT_3D('',#484,#485,#486);
#484 = CARTESIAN_POINT('',(2.008610463437,-6.181867355918,7.1));
#485 = DIRECTION('',(-4.930380657631E-32,-2.22044604925E-16,-1.));
#486 = DIRECTION('',(1.,-2.22044604925E-16,0.));
#487 = CYLINDRICAL_SURFACE('',#488,5.555513240759E-07);
#488 = AXIS2_PLACEMENT_3D('',#489,#490,#491);
#489 = CARTESIAN_POINT('',(2.008610463437,-6.181867355918,0.4));
#490 = DIRECTION('',(4.930380657631E-32,2.22044604925E-16,1.));
#491 = DIRECTION('',(1.,-2.22044604925E-16,0.));
#492 = ADVANCED_FACE('',(#493),#512,.T.);
#493 = FACE_BOUND('',#494,.F.);
#494 = EDGE_LOOP('',(#495,#503,#504,#505));
#495 = ORIENTED_EDGE('',*,*,#496,.F.);
#496 = EDGE_CURVE('',#369,#497,#499,.T.);
#497 = VERTEX_POINT('',#498);
#498 = CARTESIAN_POINT('',(-5.258610912888,3.820603813356,7.1));
#499 = LINE('',#500,#501);
#500 = CARTESIAN_POINT('',(-5.258610912888,3.820603813356,0.4));
#501 = VECTOR('',#502,1.);
#502 = DIRECTION('',(1.30514544126E-16,-1.796378588936E-16,1.));
#503 = ORIENTED_EDGE('',*,*,#368,.T.);
#504 = ORIENTED_EDGE('',*,*,#496,.T.);
#505 = ORIENTED_EDGE('',*,*,#506,.F.);
#506 = EDGE_CURVE('',#497,#497,#507,.T.);
#507 = CIRCLE('',#508,5.555513240759E-07);
#508 = AXIS2_PLACEMENT_3D('',#509,#510,#511);
#509 = CARTESIAN_POINT('',(-5.258610463437,3.820604139901,7.1));
#510 = DIRECTION('',(-1.30514544126E-16,1.796378588936E-16,-1.));
#511 = DIRECTION('',(-0.809016994375,-0.587785252292,0.));
#512 = CYLINDRICAL_SURFACE('',#513,5.555513240759E-07);
#513 = AXIS2_PLACEMENT_3D('',#514,#515,#516);
#514 = CARTESIAN_POINT('',(-5.258610463437,3.820604139901,0.4));
#515 = DIRECTION('',(1.30514544126E-16,-1.796378588936E-16,1.));
#516 = DIRECTION('',(-0.809016994375,-0.587785252292,0.));
#517 = ADVANCED_FACE('',(#518),#537,.T.);
#518 = FACE_BOUND('',#519,.F.);
#519 = EDGE_LOOP('',(#520,#528,#529,#530));
#520 = ORIENTED_EDGE('',*,*,#521,.F.);
#521 = EDGE_CURVE('',#395,#522,#524,.T.);
#522 = VERTEX_POINT('',#523);
#523 = CARTESIAN_POINT('',(6.500000171675,5.283607074639E-07,7.1));
#524 = LINE('',#525,#526);
#525 = CARTESIAN_POINT('',(6.500000171675,5.283607070042E-07,0.4));
#526 = VECTOR('',#527,1.);
#527 = DIRECTION('',(-2.111769684221E-16,6.861555643111E-17,1.));
#528 = ORIENTED_EDGE('',*,*,#394,.T.);
#529 = ORIENTED_EDGE('',*,*,#521,.T.);
#530 = ORIENTED_EDGE('',*,*,#531,.F.);
#531 = EDGE_CURVE('',#522,#522,#532,.T.);
#532 = CIRCLE('',#533,5.555513240759E-07);
#533 = AXIS2_PLACEMENT_3D('',#534,#535,#536);
#534 = CARTESIAN_POINT('',(6.5,5.651223870806E-16,7.1));
#535 = DIRECTION('',(2.111769684221E-16,-6.861555643111E-17,-1.));
#536 = DIRECTION('',(0.309016994375,0.951056516295,0.));
#537 = CYLINDRICAL_SURFACE('',#538,5.555513240759E-07);
#538 = AXIS2_PLACEMENT_3D('',#539,#540,#541);
#539 = CARTESIAN_POINT('',(6.5,1.053981589922E-16,0.4));
#540 = DIRECTION('',(-2.111769684221E-16,6.861555643111E-17,1.));
#541 = DIRECTION('',(0.309016994375,0.951056516295,0.));
#542 = ADVANCED_FACE('',(#543),#562,.T.);
#543 = FACE_BOUND('',#544,.F.);
#544 = EDGE_LOOP('',(#545,#553,#554,#555));
#545 = ORIENTED_EDGE('',*,*,#546,.F.);
#546 = EDGE_CURVE('',#421,#547,#549,.T.);
#547 = VERTEX_POINT('',#548);
#548 = CARTESIAN_POINT('',(2.008610013987,6.181867682463,7.1));
#549 = LINE('',#550,#551);
#550 = CARTESIAN_POINT('',(2.008610013987,6.181867682463,0.4));
#551 = VECTOR('',#552,1.);
#552 = DIRECTION('',(-1.30514544126E-16,-1.796378588936E-16,1.));
#553 = ORIENTED_EDGE('',*,*,#420,.T.);
#554 = ORIENTED_EDGE('',*,*,#546,.T.);
#555 = ORIENTED_EDGE('',*,*,#556,.F.);
#556 = EDGE_CURVE('',#547,#547,#557,.T.);
#557 = CIRCLE('',#558,5.555513240759E-07);
#558 = AXIS2_PLACEMENT_3D('',#559,#560,#561);
#559 = CARTESIAN_POINT('',(2.008610463437,6.181867355918,7.1));
#560 = DIRECTION('',(1.30514544126E-16,1.796378588936E-16,-1.));
#561 = DIRECTION('',(-0.809016994375,0.587785252292,0.));
#562 = CYLINDRICAL_SURFACE('',#563,5.555513240759E-07);
#563 = AXIS2_PLACEMENT_3D('',#564,#565,#566);
#564 = CARTESIAN_POINT('',(2.008610463437,6.181867355918,0.4));
#565 = DIRECTION('',(-1.30514544126E-16,-1.796378588936E-16,1.));
#566 = DIRECTION('',(-0.809016994375,0.587785252292,0.));
#567 = ADVANCED_FACE('',(#568),#571,.T.);
#568 = FACE_BOUND('',#569,.T.);
#569 = EDGE_LOOP('',(#570));
#570 = ORIENTED_EDGE('',*,*,#456,.F.);
#571 = PLANE('',#572);
#572 = AXIS2_PLACEMENT_3D('',#573,#574,#575);
#573 = CARTESIAN_POINT('',(0.,0.,7.1));
#574 = DIRECTION('',(0.,0.,1.));
#575 = DIRECTION('',(1.,0.,0.));
#576 = ADVANCED_FACE('',(#577),#580,.T.);
#577 = FACE_BOUND('',#578,.T.);
#578 = EDGE_LOOP('',(#579));
#579 = ORIENTED_EDGE('',*,*,#481,.F.);
#580 = PLANE('',#581);
#581 = AXIS2_PLACEMENT_3D('',#582,#583,#584);
#582 = CARTESIAN_POINT('',(0.,0.,7.1));
#583 = DIRECTION('',(0.,0.,1.));
#584 = DIRECTION('',(1.,0.,0.));
#585 = ADVANCED_FACE('',(#586),#589,.T.);
#586 = FACE_BOUND('',#587,.T.);
#587 = EDGE_LOOP('',(#588));
#588 = ORIENTED_EDGE('',*,*,#506,.F.);
#589 = PLANE('',#590);
#590 = AXIS2_PLACEMENT_3D('',#591,#592,#593);
#591 = CARTESIAN_POINT('',(0.,0.,7.1));
#592 = DIRECTION('',(0.,0.,1.));
#593 = DIRECTION('',(1.,0.,0.));
#594 = ADVANCED_FACE('',(#595),#598,.T.);
#595 = FACE_BOUND('',#596,.T.);
#596 = EDGE_LOOP('',(#597));
#597 = ORIENTED_EDGE('',*,*,#531,.F.);
#598 = PLANE('',#599);
#599 = AXIS2_PLACEMENT_3D('',#600,#601,#602);
#600 = CARTESIAN_POINT('',(0.,0.,7.1));
#601 = DIRECTION('',(0.,0.,1.));
#602 = DIRECTION('',(1.,0.,0.));
#603 = ADVANCED_FACE('',(#604),#607,.T.);
#604 = FACE_BOUND('',#605,.T.);
#605 = EDGE_LOOP('',(#606));
#606 = ORIENTED_EDGE('',*,*,#556,.F.);
#607 = PLANE('',#608);
#608 = AXIS2_PLACEMENT_3D('',#609,#610,#611);
#609 = CARTESIAN_POINT('',(0.,0.,7.1));
#610 = DIRECTION('',(0.,0.,1.));
#611 = DIRECTION('',(1.,0.,0.));
#612 = ( GEOMETRIC_REPRESENTATION_CONTEXT(3) 
GLOBAL_UNCERTAINTY_ASSIGNED_CONTEXT((#616)) GLOBAL_UNIT_ASSIGNED_CONTEXT
((#613,#614,#615)) REPRESENTATION_CONTEXT('Context #1',
  '3D Context with UNIT and UNCERTAINTY') );
#613 = ( LENGTH_UNIT() NAMED_UNIT(*) SI_UNIT(.MILLI.,.METRE.) );
#614 = ( NAMED_UNIT(*) PLANE_ANGLE_UNIT() SI_UNIT($,.RADIAN.) );
#615 = ( NAMED_UNIT(*) SI_UNIT($,.STERADIAN.) SOLID_ANGLE_UNIT() );
#616 = UNCERTAINTY_MEASURE_WITH_UNIT(LENGTH_MEASURE(1.E-07),#613,
  'distance_accuracy_value','confusion accuracy');
#617 = PRODUCT_RELATED_PRODUCT_CATEGORY('part',$,(#7));
#618 = MECHANICAL_DESIGN_GEOMETRIC_PRESENTATION_REPRESENTATION('',(#619)
  ,#612);
#619 = STYLED_ITEM('color',(#620),#15);
#620 = PRESENTATION_STYLE_ASSIGNMENT((#621,#627));
#621 = SURFACE_STYLE_USAGE(.BOTH.,#622);
#622 = SURFACE_SIDE_STYLE('',(#623));
#623 = SURFACE_STYLE_FILL_AREA(#624);
#624 = FILL_AREA_STYLE('',(#625));
#625 = FILL_AREA_STYLE_COLOUR('',#626);
#626 = COLOUR_RGB('',0.800000010877,0.800000010877,0.901960800373);
#627 = CURVE_STYLE('',#628,POSITIVE_LENGTH_MEASURE(0.1),#629);
#628 = DRAUGHTING_PRE_DEFINED_CURVE_FONT('continuous');
#629 = COLOUR_RGB('',9.803921802644E-02,9.803921802644E-02,
  9.803921802644E-02);
ENDSEC;
END-ISO-10303-21;
